<svg xmlns="http://www.w3.org/2000/svg" width="108.129" height="40.052" viewBox="0 0 108.129 40.052"><g transform="translate(-192.099 -356.139)"><g transform="translate(192.099 356.139)"><path d="M207.685,400.475a5.37,5.37,0,0,1-4.876-4.865v-.016a.087.087,0,0,1,0-.015A5.365,5.365,0,1,0,197,401.4a4.449,4.449,0,1,1,0,8.871,5.365,5.365,0,1,0,5.807,5.812,5.37,5.37,0,0,1,4.865-4.876h.016l.016,0a5.364,5.364,0,0,0,4.861-5.811h0c0-.016,0-.03,0-.046A5.362,5.362,0,0,0,207.685,400.475Z" transform="translate(-192.099 -380.93)"/><path d="M235.433,365.614a5.365,5.365,0,1,0-7.559-.661A5.365,5.365,0,0,0,235.433,365.614Z" transform="translate(-216.863 -356.139)"/></g><g transform="translate(222.389 370.97)"><path d="M305.267,422.272c1.792,0,2.917-.855,2.917-2.167,0-1.563-1.625-2.084-3.459-2.626-2.4-.708-5.168-1.459-5.168-4.522,0-2.584,2.209-4.335,5.564-4.335s5.418,1.876,5.481,4.939h-2.688A2.762,2.762,0,0,0,305,410.706c-1.417,0-2.668.75-2.668,2.021,0,1.438,1.375,2,3.981,2.73,2.417.688,4.668,1.646,4.668,4.314,0,2.772-2.293,4.606-5.71,4.606-3.689,0-5.981-2-5.981-5.377h2.73A2.987,2.987,0,0,0,305.267,422.272Z" transform="translate(-299.286 -408.622)"/><path d="M355.591,433.832a4.192,4.192,0,0,1-3.605,1.6c-2.376,0-3.73-1.188-3.73-3.188,0-3.439,4.314-3.481,7.044-3.793V428a1.786,1.786,0,0,0-1.959-2.042c-1.354,0-2.1.667-2.125,1.813h-2.563c.083-2.251,1.9-3.584,4.689-3.584,3.418,0,4.4,1.792,4.4,4.668v3a20.127,20.127,0,0,0,.229,3.376H355.7A12.764,12.764,0,0,1,355.591,433.832Zm-4.752-1.626c0,.917.646,1.5,1.792,1.5,1.542,0,2.668-.751,2.668-3.085v-.458C353.423,430.414,350.839,430.372,350.839,432.206Z" transform="translate(-334.417 -419.786)"/><path d="M396.334,424.951v1.6a3.175,3.175,0,0,1,2.855-1.709,5.718,5.718,0,0,1,1.188.1v2.167a5.009,5.009,0,0,0-1.084-.1c-2.063,0-2.813,1.355-2.813,3.981v4.71h-2.5V424.951Z" transform="translate(-367.22 -420.262)"/><path d="M427.3,435.487c-3.209,0-5.147-2.292-5.147-5.689,0-3.355,1.959-5.689,5.147-5.689,2.855,0,4.585,1.6,4.73,4.043h-2.584a2.1,2.1,0,0,0-2.167-2.1c-1.6,0-2.542,1.48-2.542,3.71,0,2.251.979,3.793,2.542,3.793a2.2,2.2,0,0,0,2.23-2.167h2.542C431.862,433.945,430.091,435.487,427.3,435.487Z" transform="translate(-387.431 -419.732)"/><path d="M470.143,436.177a3.527,3.527,0,0,1-3.043-1.459,6.02,6.02,0,0,1-.625-3.4v-6.106h2.48v6.023c0,1.584.25,3.043,1.98,3.043a2.083,2.083,0,0,0,1.771-.833,4.65,4.65,0,0,0,.667-2.772v-5.46h2.5v10.753H473.54v-1.4A4.184,4.184,0,0,1,470.143,436.177Z" transform="translate(-419.229 -420.526)"/><path d="M514.85,424.951v1.6a3.175,3.175,0,0,1,2.855-1.709,5.719,5.719,0,0,1,1.188.1v2.167a5.012,5.012,0,0,0-1.084-.1c-2.063,0-2.813,1.355-2.813,3.981v4.71h-2.5V424.951Z" transform="translate(-452.245 -420.262)"/><path d="M547.708,433.832a4.192,4.192,0,0,1-3.605,1.6c-2.376,0-3.73-1.188-3.73-3.188,0-3.439,4.314-3.481,7.044-3.793V428a1.786,1.786,0,0,0-1.959-2.042c-1.355,0-2.1.667-2.125,1.813h-2.564c.083-2.251,1.9-3.584,4.689-3.584,3.418,0,4.4,1.792,4.4,4.668v3a20.124,20.124,0,0,0,.229,3.376h-2.271A12.832,12.832,0,0,1,547.708,433.832Zm-4.751-1.626c0,.917.646,1.5,1.792,1.5,1.542,0,2.668-.751,2.668-3.085v-.458C545.541,430.414,542.957,430.372,542.957,432.206Z" transform="translate(-472.245 -419.786)"/></g></g></svg>